<?xml version="1.0" encoding="UTF-8" standalone="no"?>
<!DOCTYPE svg PUBLIC "-//W3C//DTD SVG 1.1//EN"
 "http://www.w3.org/Graphics/SVG/1.1/DTD/svg11.dtd">
<!-- Generated by graphviz version 2.36.0 (20140111.2315)
 -->
<!-- Title: %3 Pages: 1 -->
<svg width="316pt" height="320pt"
 viewBox="0.00 0.00 316.00 320.00" xmlns="http://www.w3.org/2000/svg" xmlns:xlink="http://www.w3.org/1999/xlink">
<g id="graph0" class="graph" transform="scale(1 1) rotate(0) translate(4 316)">
<title>%3</title>
<polygon fill="white" stroke="none" points="-4,4 -4,-316 312,-316 312,4 -4,4"/>
<!-- 1.C -->
<g id="node1" class="node"><title>1.C</title>
<polygon fill="#ccffcc" stroke="black" points="308,-146 254,-146 254,-110 308,-110 308,-146"/>
<text text-anchor="middle" x="281" y="-124.3" font-family="Times,serif" font-size="14.00">1.C</text>
</g>
<!-- 1.B -->
<g id="node2" class="node"><title>1.B</title>
<polygon fill="#ccffcc" stroke="black" points="218,-92 164,-92 164,-56 218,-56 218,-92"/>
<text text-anchor="middle" x="191" y="-70.3" font-family="Times,serif" font-size="14.00">1.B</text>
</g>
<!-- 1.C&#45;&gt;1.B -->
<g id="edge1" class="edge"><title>1.C&#45;&gt;1.B</title>
<path fill="none" stroke="black" d="M253.597,-111.798C245.168,-106.626 235.707,-100.82 226.776,-95.3401"/>
<polygon fill="black" stroke="black" points="228.435,-92.2513 218.081,-90.0043 224.774,-98.2176 228.435,-92.2513"/>
</g>
<!-- 2.C -->
<g id="node6" class="node"><title>2.C</title>
<polygon fill="#ffffcc" stroke="black" points="218,-120.544 218,-135.456 202.184,-146 179.816,-146 164,-135.456 164,-120.544 179.816,-110 202.184,-110 218,-120.544"/>
<text text-anchor="middle" x="191" y="-124.3" font-family="Times,serif" font-size="14.00">2.C</text>
</g>
<!-- 1.C&#45;&gt;2.C -->
<g id="edge6" class="edge"><title>1.C&#45;&gt;2.C</title>
<path fill="none" stroke="black" d="M253.597,-128C245.607,-128 236.689,-128 228.176,-128"/>
<polygon fill="black" stroke="black" points="228.081,-124.5 218.081,-128 228.081,-131.5 228.081,-124.5"/>
</g>
<!-- 2.B -->
<g id="node7" class="node"><title>2.B</title>
<polygon fill="#ffffcc" stroke="black" points="128,-122.544 128,-137.456 112.184,-148 89.8162,-148 74,-137.456 74,-122.544 89.8162,-112 112.184,-112 128,-122.544"/>
<text text-anchor="middle" x="101" y="-126.3" font-family="Times,serif" font-size="14.00">2.B</text>
</g>
<!-- 1.B&#45;&gt;2.B -->
<g id="edge5" class="edge"><title>1.B&#45;&gt;2.B</title>
<path fill="none" stroke="black" d="M163.597,-90.8018C152.918,-97.5976 140.583,-105.447 129.769,-112.329"/>
<polygon fill="black" stroke="black" points="127.671,-109.515 121.113,-117.837 131.429,-115.421 127.671,-109.515"/>
</g>
<!-- 1.D -->
<g id="node3" class="node"><title>1.D</title>
<polygon fill="#ccffcc" stroke="black" points="308,-92 254,-92 254,-56 308,-56 308,-92"/>
<text text-anchor="middle" x="281" y="-70.3" font-family="Times,serif" font-size="14.00">1.D</text>
</g>
<!-- 1.D&#45;&gt;1.B -->
<g id="edge2" class="edge"><title>1.D&#45;&gt;1.B</title>
<path fill="none" stroke="black" d="M253.597,-74C245.607,-74 236.689,-74 228.176,-74"/>
<polygon fill="black" stroke="black" points="228.081,-70.5001 218.081,-74 228.081,-77.5001 228.081,-70.5001"/>
</g>
<!-- 1.D&#45;&gt;2.C -->
<g id="edge7" class="edge"><title>1.D&#45;&gt;2.C</title>
<path fill="none" stroke="black" d="M253.597,-90.2018C242.997,-96.7063 230.766,-104.212 220.01,-110.812"/>
<polygon fill="black" stroke="black" points="218.083,-107.888 211.39,-116.101 221.744,-113.854 218.083,-107.888"/>
</g>
<!-- 1.I -->
<g id="node4" class="node"><title>1.I</title>
<polygon fill="#ccffcc" stroke="black" points="128,-311 74,-311 74,-275 128,-275 128,-311"/>
<text text-anchor="middle" x="101" y="-289.3" font-family="Times,serif" font-size="14.00">1.I</text>
</g>
<!-- 1.A\n2.A -->
<g id="node11" class="node"><title>1.A\n2.A</title>
<polygon fill="#eeeeee" stroke="black" points="38,-231 0,-231 0,-193 38,-193 38,-231"/>
<polyline fill="none" stroke="black" points="12,-231 0,-219 "/>
<polyline fill="none" stroke="black" points="0,-205 12,-193 "/>
<polyline fill="none" stroke="black" points="26,-193 38,-205 "/>
<polyline fill="none" stroke="black" points="38,-219 26,-231 "/>
<text text-anchor="middle" x="19" y="-215.8" font-family="Times,serif" font-size="14.00">1.A</text>
<text text-anchor="middle" x="19" y="-200.8" font-family="Times,serif" font-size="14.00">2.A</text>
</g>
<!-- 1.I&#45;&gt;1.A\n2.A -->
<g id="edge14" class="edge"><title>1.I&#45;&gt;1.A\n2.A</title>
<path fill="none" stroke="black" d="M81.8468,-274.62C71.0045,-263.642 57.0732,-249.537 45.1785,-237.493"/>
<polygon fill="black" stroke="black" points="47.5986,-234.963 38.0814,-230.307 42.6182,-239.882 47.5986,-234.963"/>
</g>
<!-- 1.F -->
<g id="node5" class="node"><title>1.F</title>
<polygon fill="#ccffcc" stroke="black" points="128,-203 74,-203 74,-167 128,-167 128,-203"/>
<text text-anchor="middle" x="101" y="-181.3" font-family="Times,serif" font-size="14.00">1.F</text>
</g>
<!-- 1.F&#45;&gt;1.A\n2.A -->
<g id="edge13" class="edge"><title>1.F&#45;&gt;1.A\n2.A</title>
<path fill="none" stroke="black" d="M73.805,-193.841C65.4203,-196.671 56.1132,-199.812 47.6295,-202.675"/>
<polygon fill="black" stroke="black" points="46.5089,-199.359 38.1532,-205.873 48.7474,-205.992 46.5089,-199.359"/>
</g>
<!-- 2.C&#45;&gt;2.B -->
<g id="edge3" class="edge"><title>2.C&#45;&gt;2.B</title>
<path fill="none" stroke="black" d="M163.597,-128.6C155.607,-128.782 146.689,-128.984 138.176,-129.178"/>
<polygon fill="black" stroke="black" points="137.999,-125.681 128.081,-129.407 138.158,-132.679 137.999,-125.681"/>
</g>
<!-- 2.B&#45;&gt;1.A\n2.A -->
<g id="edge12" class="edge"><title>2.B&#45;&gt;1.A\n2.A</title>
<path fill="none" stroke="black" d="M85.3268,-145.04C74.1372,-156.509 58.4556,-172.583 45.2613,-186.107"/>
<polygon fill="black" stroke="black" points="42.7094,-183.711 38.2314,-193.313 47.7199,-188.599 42.7094,-183.711"/>
</g>
<!-- 2.I -->
<g id="node8" class="node"><title>2.I</title>
<polygon fill="#ffffcc" stroke="black" points="218,-286.544 218,-301.456 202.184,-312 179.816,-312 164,-301.456 164,-286.544 179.816,-276 202.184,-276 218,-286.544"/>
<text text-anchor="middle" x="191" y="-290.3" font-family="Times,serif" font-size="14.00">2.I</text>
</g>
<!-- 2.I&#45;&gt;1.I -->
<g id="edge8" class="edge"><title>2.I&#45;&gt;1.I</title>
<path fill="none" stroke="red" d="M163.597,-293.7C155.607,-293.609 146.689,-293.508 138.176,-293.411"/>
<polygon fill="red" stroke="red" points="138.12,-289.91 128.081,-293.296 138.041,-296.91 138.12,-289.91"/>
</g>
<!-- 2.F -->
<g id="node9" class="node"><title>2.F</title>
<polygon fill="#ffffcc" stroke="black" points="128,-231.544 128,-246.456 112.184,-257 89.8162,-257 74,-246.456 74,-231.544 89.8162,-221 112.184,-221 128,-231.544"/>
<text text-anchor="middle" x="101" y="-235.3" font-family="Times,serif" font-size="14.00">2.F</text>
</g>
<!-- 2.I&#45;&gt;2.F -->
<g id="edge4" class="edge"><title>2.I&#45;&gt;2.F</title>
<path fill="none" stroke="black" d="M170.47,-281.794C158.621,-274.388 143.301,-264.813 130.158,-256.599"/>
<polygon fill="black" stroke="black" points="131.81,-253.504 121.475,-251.172 128.1,-259.44 131.81,-253.504"/>
</g>
<!-- 2.F&#45;&gt;1.A\n2.A -->
<g id="edge11" class="edge"><title>2.F&#45;&gt;1.A\n2.A</title>
<path fill="none" stroke="black" d="M75.126,-230.605C66.4614,-227.681 56.6862,-224.382 47.7995,-221.382"/>
<polygon fill="black" stroke="black" points="48.8444,-218.041 38.2502,-218.159 46.6059,-224.674 48.8444,-218.041"/>
</g>
<!-- 1.H\n2.H -->
<g id="node10" class="node"><title>1.H\n2.H</title>
<polygon fill="#eeeeee" stroke="black" points="210,-202 172,-202 172,-164 210,-164 210,-202"/>
<polyline fill="none" stroke="black" points="184,-202 172,-190 "/>
<polyline fill="none" stroke="black" points="172,-176 184,-164 "/>
<polyline fill="none" stroke="black" points="198,-164 210,-176 "/>
<polyline fill="none" stroke="black" points="210,-190 198,-202 "/>
<text text-anchor="middle" x="191" y="-186.8" font-family="Times,serif" font-size="14.00">1.H</text>
<text text-anchor="middle" x="191" y="-171.8" font-family="Times,serif" font-size="14.00">2.H</text>
</g>
<!-- 1.H\n2.H&#45;&gt;1.F -->
<g id="edge9" class="edge"><title>1.H\n2.H&#45;&gt;1.F</title>
<path fill="none" stroke="black" d="M171.766,-183.414C162.13,-183.633 149.949,-183.91 138.471,-184.171"/>
<polygon fill="black" stroke="black" points="138.14,-180.678 128.222,-184.404 138.299,-187.676 138.14,-180.678"/>
</g>
<!-- 1.H\n2.H&#45;&gt;2.B -->
<g id="edge10" class="edge"><title>1.H\n2.H&#45;&gt;2.B</title>
<path fill="none" stroke="black" d="M171.766,-172.018C159.904,-164.874 144.184,-155.407 130.67,-147.267"/>
<polygon fill="black" stroke="black" points="132.112,-144.05 121.74,-141.889 128.501,-150.047 132.112,-144.05"/>
</g>
<!-- 1.G\n2.G -->
<g id="node12" class="node"><title>1.G\n2.G</title>
<polygon fill="#eeeeee" stroke="black" points="210,-258 172,-258 172,-220 210,-220 210,-258"/>
<polyline fill="none" stroke="black" points="184,-258 172,-246 "/>
<polyline fill="none" stroke="black" points="172,-232 184,-220 "/>
<polyline fill="none" stroke="black" points="198,-220 210,-232 "/>
<polyline fill="none" stroke="black" points="210,-246 198,-258 "/>
<text text-anchor="middle" x="191" y="-242.8" font-family="Times,serif" font-size="14.00">1.G</text>
<text text-anchor="middle" x="191" y="-227.8" font-family="Times,serif" font-size="14.00">2.G</text>
</g>
<!-- 1.G\n2.G&#45;&gt;1.F -->
<g id="edge15" class="edge"><title>1.G\n2.G&#45;&gt;1.F</title>
<path fill="none" stroke="black" d="M171.766,-227.811C161.737,-221.657 148.95,-213.81 137.07,-206.52"/>
<polygon fill="black" stroke="black" points="138.576,-203.338 128.222,-201.091 134.915,-209.304 138.576,-203.338"/>
</g>
<!-- 1.G\n2.G&#45;&gt;2.F -->
<g id="edge16" class="edge"><title>1.G\n2.G&#45;&gt;2.F</title>
<path fill="none" stroke="black" d="M171.766,-239C162.13,-239 149.949,-239 138.471,-239"/>
<polygon fill="black" stroke="black" points="138.222,-235.5 128.222,-239 138.222,-242.5 138.222,-235.5"/>
</g>
<!-- 1.E\n2.E -->
<g id="node13" class="node"><title>1.E\n2.E</title>
<polygon fill="#eeeeee" stroke="black" points="300,-38 262,-38 262,-0 300,-0 300,-38"/>
<polyline fill="none" stroke="black" points="274,-38 262,-26 "/>
<polyline fill="none" stroke="black" points="262,-12 274,-0 "/>
<polyline fill="none" stroke="black" points="288,-0 300,-12 "/>
<polyline fill="none" stroke="black" points="300,-26 288,-38 "/>
<text text-anchor="middle" x="281" y="-22.8" font-family="Times,serif" font-size="14.00">1.E</text>
<text text-anchor="middle" x="281" y="-7.8" font-family="Times,serif" font-size="14.00">2.E</text>
</g>
<!-- 1.E\n2.E&#45;&gt;1.B -->
<g id="edge17" class="edge"><title>1.E\n2.E&#45;&gt;1.B</title>
<path fill="none" stroke="black" d="M261.766,-30.396C251.639,-36.7258 238.699,-44.8131 226.721,-52.2996"/>
<polygon fill="black" stroke="black" points="224.847,-49.343 218.222,-57.6111 228.557,-55.279 224.847,-49.343"/>
</g>
</g>
</svg>
